<svg width="67" height="66" viewBox="0 0 67 66" fill="none" xmlns="http://www.w3.org/2000/svg">
<g filter="url(#filter0_d_517_838)">
<path d="M60.3836 5.25H6.61638C5.51657 5.25 4.625 6.14543 4.625 7.25V45.25C4.625 46.3546 5.51657 47.25 6.61638 47.25H60.3836C61.4834 47.25 62.375 46.3546 62.375 45.25V7.25C62.375 6.14543 61.4834 5.25 60.3836 5.25Z" fill="#5D62B5"/>
<path d="M29.5625 24.2812L23.6562 30.1875C23.4803 30.1001 23.3097 30.0054 23.1444 29.9033C22.1658 29.3093 21.3449 28.4882 20.7511 27.5095C20.1574 26.5309 19.8083 25.4235 19.7335 24.2812C19.7237 24.1274 19.7188 23.9724 19.7188 23.8161V21.3281H25.625L29.5625 24.2812Z" fill="#F3AF3E"/>
<path d="M27.5936 27.2344L25.1327 28.7109L23.1443 29.9033C22.1657 29.3093 21.3448 28.4882 20.751 27.5095C20.1573 26.5309 19.8082 25.4235 19.7334 24.2812H24.7303L27.1088 26.7348L27.5936 27.2344Z" fill="#5B3726"/>
<path d="M47.2812 21.3281V23.8161C47.2812 23.9724 47.2763 24.1274 47.2665 24.2812C47.1848 25.5224 46.7797 26.7206 46.0916 27.7567C45.4034 28.7928 44.4561 29.6309 43.3438 30.1875L37.4375 24.2812L41.375 21.3281H47.2812Z" fill="#F3AF3E"/>
<path d="M47.2665 24.2812C47.1968 25.3459 46.8889 26.3812 46.3654 27.3109C45.8419 28.2405 45.1162 29.0407 44.242 29.6522L41.375 28.2187L39.4062 27.2344L39.8911 26.7348L42.2695 24.2812H47.2665Z" fill="#5B3726"/>
<path d="M44.3281 32.1562V44.9531H22.6719V32.1562C22.6719 29.2845 23.8127 26.5303 25.8434 24.4996C27.874 22.4689 30.6282 21.3281 33.5 21.3281C36.3718 21.3281 39.126 22.4689 41.1566 24.4996C43.1873 26.5303 44.3281 29.2845 44.3281 32.1562V32.1562Z" fill="#F3AF3E"/>
<path d="M28.2686 28.2844L31.2227 27.3008L31.8448 29.1692L28.8907 30.1529L28.2686 28.2844Z" fill="#D18D28"/>
<path d="M35.1572 29.1364L35.7794 27.2679L38.7335 28.2515L38.1113 30.12L35.1572 29.1364Z" fill="#D18D28"/>
<path d="M39.6307 35.8858L38.7502 34.125C37.9701 34.5125 35.3197 36.6621 34.4851 36.4127V34.125H32.5164V36.4137C31.6817 36.6627 29.0303 34.5124 28.2502 34.125L27.3696 35.8858C28.0454 36.222 30.5374 38.4862 31.2915 38.5193C32.0455 38.5525 32.7981 38.4273 33.5007 38.1518C34.2035 38.4272 34.9561 38.5523 35.7101 38.519C36.4641 38.4857 38.955 36.2221 39.6307 35.8858Z" fill="#744630"/>
<path d="M25.625 42C25.6256 42.3456 25.5348 42.6852 25.3617 42.9844H22.6719V39.0469C23.4551 39.0469 24.2062 39.358 24.76 39.9118C25.3139 40.4656 25.625 41.2168 25.625 42Z" fill="#D18D28"/>
<path d="M44.3281 39.0469V42.9844H41.6383C41.4652 42.6852 41.3744 42.3456 41.375 42C41.375 41.2168 41.6861 40.4656 42.24 39.9118C42.7938 39.358 43.5449 39.0469 44.3281 39.0469Z" fill="#D18D28"/>
<path d="M22.6719 43.9688H20.7031C20.181 43.9688 19.6802 43.7613 19.311 43.3921C18.9418 43.0229 18.7344 42.5221 18.7344 42C18.7344 41.2168 19.0455 40.4656 19.5993 39.9118C20.1531 39.358 20.9043 39.0469 21.6875 39.0469C22.4707 39.0469 23.2219 39.358 23.7757 39.9118C24.3295 40.4656 24.6406 41.2168 24.6406 42C24.6406 42.5221 24.4332 43.0229 24.064 43.3921C23.6948 43.7613 23.194 43.9688 22.6719 43.9688Z" fill="#F3AF3E"/>
<path d="M46.2969 43.9688H44.3281C43.806 43.9688 43.3052 43.7613 42.936 43.3921C42.5668 43.0229 42.3594 42.5221 42.3594 42C42.3594 41.2168 42.6705 40.4656 43.2243 39.9118C43.7781 39.358 44.5293 39.0469 45.3125 39.0469C46.0957 39.0469 46.8469 39.358 47.4007 39.9118C47.9545 40.4656 48.2656 41.2168 48.2656 42C48.2656 42.5221 48.0582 43.0229 47.689 43.3921C47.3198 43.7613 46.819 43.9688 46.2969 43.9688Z" fill="#F3AF3E"/>
<path d="M33.5 35.1094C32.9779 35.1094 32.4771 34.902 32.1079 34.5327C31.7387 34.1635 31.5312 33.6628 31.5312 33.1406V31.1719H35.4688V33.1406C35.4688 33.6628 35.2613 34.1635 34.8921 34.5327C34.5229 34.902 34.0221 35.1094 33.5 35.1094Z" fill="#5B3726"/>
<path d="M42.3594 53.4844H24.6406L24.8092 53.3158C26.5912 51.5325 27.5927 49.1148 27.5938 46.5938H39.4062C39.4064 49.115 40.408 51.533 42.1908 53.3158L42.3594 53.4844Z" fill="#D9D9D9"/>
<path d="M60.3836 47.25H6.61638C6.08823 47.25 5.58172 47.0288 5.20826 46.6349C4.83481 46.2411 4.625 45.707 4.625 45.15V42H62.375V45.15C62.375 45.707 62.1652 46.2411 61.7917 46.6349C61.4183 47.0288 60.9118 47.25 60.3836 47.25Z" fill="#E4E4E2"/>
<path d="M24.6406 53.4844H42.3594C42.8815 53.4844 43.3823 53.6918 43.7515 54.061C44.1207 54.4302 44.3281 54.931 44.3281 55.4531V57.4219H22.6719V55.4531C22.6719 54.931 22.8793 54.4302 23.2485 54.061C23.6177 53.6918 24.1185 53.4844 24.6406 53.4844V53.4844Z" fill="#E4E4E2"/>
<path d="M39.6127 48.5625H27.3867C27.5243 47.9153 27.5935 47.2554 27.5934 46.5938H39.4059C39.4058 47.2554 39.4751 47.9153 39.6127 48.5625V48.5625Z" fill="#A8A8A8"/>
<circle cx="57.125" cy="10.5" r="2.625" fill="#62B58F"/>
</g>
<defs>
<filter id="filter0_d_517_838" x="-2" y="0" width="71" height="71" filterUnits="userSpaceOnUse" color-interpolation-filters="sRGB">
<feFlood flood-opacity="0" result="BackgroundImageFix"/>
<feColorMatrix in="SourceAlpha" type="matrix" values="0 0 0 0 0 0 0 0 0 0 0 0 0 0 0 0 0 0 127 0" result="hardAlpha"/>
<feOffset dy="4"/>
<feGaussianBlur stdDeviation="2"/>
<feComposite in2="hardAlpha" operator="out"/>
<feColorMatrix type="matrix" values="0 0 0 0 0 0 0 0 0 0 0 0 0 0 0 0 0 0 0.25 0"/>
<feBlend mode="normal" in2="BackgroundImageFix" result="effect1_dropShadow_517_838"/>
<feBlend mode="normal" in="SourceGraphic" in2="effect1_dropShadow_517_838" result="shape"/>
</filter>
</defs>
</svg>
